<svg clip-rule="evenodd" stroke-linecap="round" stroke-linejoin="round" stroke-miterlimit="10" viewBox="0 0 792.099 612.077" xmlns="http://www.w3.org/2000/svg"><g stroke-linecap="round" stroke-linejoin="round" stroke-width="1.5"><g><path d="m446.722 207.402h19.727v49.318h-19.727z" fill="none" stroke="#840000"/><g fill="none" stroke="#840000"><path d="m456.586 207.402v-12.33"/><path d="m456.586 256.72v12.33"/></g><g><g fill="#006464" fill-opacity="0" opacity="0" stroke="#000"><path d="m506.018 220.151c.078 0 .139-.015.184-.046s.067-.087.067-.167c0-.087-.031-.146-.094-.177-.034-.017-.079-.025-.135-.025h-.402v.415zm-.544-.556h.562c.092 0 .169.013.229.04.114.052.171.148.171.287 0 .073-.015.132-.045.179-.03.046-.072.083-.126.111.047.02.083.045.107.076.024.032.037.083.04.153l.006.163c.001.046.005.081.011.103.01.039.028.064.053.075v.027h-.201c-.006-.01-.01-.024-.014-.04-.003-.017-.006-.049-.008-.096l-.01-.203c-.004-.079-.033-.132-.088-.159-.032-.015-.081-.023-.148-.023h-.375v.521h-.164z"/><path d="m506.601 220.809c.005-.102.026-.191.063-.266.036-.076.108-.144.214-.206l.159-.092c.071-.041.121-.076.15-.106.045-.045.068-.098.068-.157 0-.069-.021-.123-.062-.164-.042-.04-.097-.061-.166-.061-.102 0-.172.039-.211.116-.021.042-.033.099-.035.172h-.152c.002-.103.021-.187.058-.252.064-.115.178-.172.341-.172.136 0 .235.037.297.11.063.073.094.155.094.245 0 .095-.033.176-.1.243-.039.039-.108.086-.207.142l-.114.063c-.054.03-.096.058-.127.085-.055.048-.09.101-.104.16h.646v.14z"/></g><g fill="none" stroke="#006464"><path d="m492.304 237.687-4.109-5.871"/><path d="m485.259 237.687v-12.33"/><path d="m485.259 225.357h4.697"/><path d="m489.956 225.357 1.175.588"/><path d="m491.131 225.945.587.587"/><path d="m491.718 226.532.586 1.174"/><path d="m492.304 227.706v1.762"/><path d="m492.304 229.468-.586 1.174"/><path d="m491.718 230.642-.587.587"/><path d="m491.131 231.229-1.175.587"/><path d="m489.956 231.816h-4.697"/><path d="m497.002 226.532.587-.587"/><path d="m497.589 225.945 1.174-.588"/><path d="m498.763 225.357h2.936"/><path d="m501.699 225.357 1.174.588"/><path d="m502.873 225.945.587.587"/><path d="m503.46 226.532.588 1.174"/><path d="m504.048 227.706v1.175"/><path d="m504.048 228.881-.588 1.761"/><path d="m503.46 230.642-7.045 7.045"/><path d="m496.415 237.687h7.633"/></g></g></g><g><g fill="none" stroke="#840000"><path d="m29.9837 232.061 7.3977-12.33"/><path d="m37.3814 244.391v-24.66"/><path d="m37.3814 219.731 7.3978 12.33"/></g><g><g fill="#006464" fill-opacity="0" opacity="0" stroke="#000"><path d="m45.5694 183.458v-.138h.3604v-.363h.1414v.363h.3605v.138h-.3605v.363h-.1414v-.363z"/><path d="m46.9774 182.632c.1323 0 .2245.034.2766.103.0521.068.0781.139.0781.212h-.1472c-.0088-.047-.0228-.084-.0421-.11-.0359-.05-.0902-.075-.1629-.075-.0832 0-.1494.039-.1984.116-.0491.077-.0764.187-.0819.33.0342-.05.0772-.088.129-.113.0474-.022.1003-.033.1587-.033.0992 0 .1858.032.2596.096.0739.063.1108.157.1108.283 0 .108-.035.203-.105.286s-.1697.124-.2993.124c-.1108 0-.2064-.042-.2869-.126s-.1207-.225-.1207-.424c0-.148.0179-.272.0538-.375.0689-.196.1948-.294.3778-.294zm-.0107 1.087c.0782 0 .1368-.026.1757-.079.0388-.053.0582-.115.0582-.186 0-.061-.0173-.119-.052-.174-.0348-.055-.0979-.082-.1894-.082-.0639 0-.12.021-.1682.064-.0483.042-.0724.106-.0724.192 0 .074.0219.137.0657.188.0439.051.1046.077.1824.077z"/><path d="m47.6488 182.606.3489 1.034.3448-1.034h.1843l-.4431 1.215h-.1745l-.4423-1.215z"/></g><g fill="none" stroke="#006464"><path d="m21.5288 196.001h9.3947"/><path d="m26.2256 200.698v-9.393"/><path d="m42.0783 188.369h-2.3484"/><path d="m39.7299 188.369-1.1738.587"/><path d="m38.5561 188.956-.5873.588"/><path d="m37.9688 189.544-1.1747 1.761"/><path d="m36.7941 191.305-.5864 2.348"/><path d="m36.2077 193.653v4.697"/><path d="m36.2077 198.35.5864 1.175"/><path d="m36.7941 199.525.5873.587"/><path d="m37.3814 200.112 1.1747.586"/><path d="m38.5561 200.698h2.3485"/><path d="m40.9046 200.698 1.1737-.586"/><path d="m42.0783 200.112.5874-.587"/><path d="m42.6657 199.525.5873-1.175"/><path d="m43.253 198.35v-2.936"/><path d="m43.253 195.414-.5873-1.174"/><path d="m42.6657 194.24-.5874-.587"/><path d="m42.0783 193.653-1.1737-.587"/><path d="m40.9046 193.066h-2.3485"/><path d="m38.5561 193.066-1.1747.587"/><path d="m37.3814 193.653-.5873.587"/><path d="m36.7941 194.24-.5864 1.174"/><path d="m46.7752 188.369 4.1095 12.329"/><path d="m50.8847 200.698 4.1105-12.329"/></g></g></g><g><g fill="none" stroke="#840000"><path d="m449.188 133.425 7.398-12.33"/><path d="m456.586 145.754v-24.659"/><path d="m456.586 121.095 7.397 12.33"/></g><g><g fill="#006464" fill-opacity="0" opacity="0" stroke="#000"><path d="m464.774 84.8222v-.1389h.36v-.363h.141v.363h.361v.1389h-.361v.3621h-.141v-.3621z"/><path d="m466.182 83.9954c.132 0 .224.0343.276.1029s.078.1393.078.2121h-.147c-.009-.0469-.023-.0835-.042-.11-.036-.0496-.09-.0744-.163-.0744-.083 0-.149.0385-.198.1153-.049.0769-.077.187-.082.3304.034-.0502.077-.0877.129-.1125.047-.022.1-.0331.159-.0331.099 0 .185.0317.259.0951s.111.1579.111.2836c0 .1075-.035.2027-.105.2857-.07.0829-.17.1244-.299.1244-.111 0-.207-.042-.287-.1261-.081-.084-.121-.2256-.121-.4245 0-.1472.018-.2721.054-.3746.069-.1962.195-.2943.378-.2943zm-.011 1.0872c.078 0 .137-.0263.176-.0789.038-.0527.058-.1148.058-.1865 0-.0606-.018-.1184-.052-.1732-.035-.0548-.098-.0823-.19-.0823-.064 0-.12.0213-.168.0637s-.072.1064-.072.1918c0 .075.022.138.066.1889.043.051.104.0765.182.0765z"/><path d="m466.853 83.9697.349 1.0344.345-1.0344h.184l-.443 1.2146h-.175l-.442-1.2146z"/></g><g fill="none" stroke="#006464"><path d="m440.733 97.3652h9.395"/><path d="m445.43 102.062v-9.3937"/><path d="m461.283 89.7325h-2.349"/><path d="m458.934 89.7325-1.174.5874"/><path d="m457.76 90.3199-.587.5873"/><path d="m457.173 90.9072-1.175 1.7611"/><path d="m455.998 92.6683-.586 2.3485"/><path d="m455.412 95.0168v4.6968"/><path d="m455.412 99.7136.586 1.1744"/><path d="m455.998 100.888.588.588"/><path d="m456.586 101.476 1.174.586"/><path d="m457.76 102.062h2.349"/><path d="m460.109 102.062 1.174-.586"/><path d="m461.283 101.476.587-.588"/><path d="m461.87 100.888.587-1.1744"/><path d="m462.457 99.7136v-2.9358"/><path d="m462.457 96.7778-.587-1.1737"/><path d="m461.87 95.6041-.587-.5873"/><path d="m461.283 95.0168-1.174-.5874"/><path d="m460.109 94.4294h-2.349"/><path d="m457.76 94.4294-1.174.5874"/><path d="m456.586 95.0168-.588.5873"/><path d="m455.998 95.6041-.586 1.1737"/><path d="m465.979 89.7325 4.11 12.3295"/><path d="m470.089 102.062 4.11-12.3295"/></g></g></g><g><path d="m185.336 345.493h49.318v19.727h-49.318z" fill="none" stroke="#840000"/><g fill="none" stroke="#840000"><path d="m185.336 355.356h-12.33"/><path d="m234.654 355.356h12.33"/></g><g><g fill="#006464" fill-opacity="0" opacity="0" stroke="#000"><path d="m221.653 306.458c.077 0 .138-.016.183-.047.045-.03.067-.086.067-.167 0-.086-.031-.145-.094-.176-.034-.017-.078-.025-.135-.025h-.402v.415zm-.545-.557h.562c.093 0 .169.014.229.041.114.052.171.147.171.287 0 .073-.015.132-.045.178-.03.047-.072.084-.126.112.048.019.083.045.107.076s.038.082.04.153l.006.163c.002.046.006.081.012.103.01.039.027.064.053.075v.027h-.202c-.006-.011-.01-.024-.013-.041-.004-.016-.006-.048-.009-.095l-.01-.203c-.003-.079-.033-.133-.088-.16-.031-.015-.081-.022-.148-.022h-.375v.521h-.164z"/><path d="m222.344 306.278v-.115c.107-.01.182-.028.225-.052.042-.025.074-.083.095-.174h.117v1.179h-.158v-.838z"/></g><g fill="none" stroke="#006464"><path d="m207.939 323.994-4.11-5.871"/><path d="m200.893 323.994v-12.33"/><path d="m200.893 311.664h4.697"/><path d="m205.59 311.664 1.175.588"/><path d="m206.765 312.252.587.587"/><path d="m207.352 312.839.587 1.174"/><path d="m207.939 314.013v1.762"/><path d="m207.939 315.775-.587 1.173"/><path d="m207.352 316.948-.587.588"/><path d="m206.765 317.536-1.175.587"/><path d="m205.59 318.123h-4.697"/><path d="m219.682 323.994h-7.045"/><path d="m216.159 323.994v-12.33"/><path d="m216.159 311.664-1.174 1.762"/><path d="m214.985 313.426-1.175 1.174"/><path d="m213.81 314.6-1.173.587"/></g></g></g><g><g fill="none"><g stroke="#840000"><path d="m74.3701 355.356c0-2.723 2.208-4.931 4.9318-4.931 2.7237 0 4.9318 2.208 4.9318 4.931 0 2.724-2.2081 4.932-4.9318 4.932-2.7238 0-4.9318-2.208-4.9318-4.932z"/><path d="m84.2337 352.89 29.5913-14.795"/><path d="m113.825 355.356c0-2.723 2.208-4.931 4.931-4.931 2.724 0 4.932 2.208 4.932 4.931 0 2.724-2.208 4.932-4.932 4.932-2.723 0-4.931-2.208-4.931-4.932z"/><path d="m74.37 355.356h-24.659"/></g><g><path d="m74.008 351.897v-.114c.1075-.011.1825-.028.2249-.053.0424-.024.0741-.082.0951-.174h.1174v1.179h-.1588v-.838z" opacity="0" stroke="#000"/><g stroke="#a90000"><path d="m65.5636 370.661h-7.0453"/><path d="m62.0405 370.661v-12.33"/><path d="m62.0405 358.331-1.1737 1.762"/><path d="m60.8668 360.093-1.1747 1.174"/><path d="m59.6921 361.267-1.1738.587"/></g></g><path d="m123.688 355.356h24.659" stroke="#840000"/><g><path d="m147.876 352.735c.006-.102.027-.191.063-.266.037-.076.108-.144.215-.206l.159-.092c.071-.041.121-.076.149-.106.045-.045.068-.098.068-.157 0-.069-.021-.123-.062-.164-.041-.04-.096-.061-.165-.061-.102 0-.173.039-.212.116-.021.042-.033.099-.035.172h-.151c.002-.103.021-.187.057-.252.065-.115.178-.172.341-.172.136 0 .235.037.298.11.062.073.094.155.094.245 0 .095-.034.176-.1.243-.039.039-.108.086-.208.142l-.113.063c-.054.03-.097.058-.128.085-.055.048-.089.101-.104.16h.647v.14z" opacity="0" stroke="#000"/><g stroke="#a90000"><path d="m132.496 359.506.586-.588"/><path d="m133.082 358.918 1.175-.587"/><path d="m134.257 358.331h2.935"/><path d="m137.192 358.331 1.174.587"/><path d="m138.366 358.918.588.588"/><path d="m138.954 359.506.587 1.173"/><path d="m139.541 360.679v1.175"/><path d="m139.541 361.854-.587 1.761"/><path d="m138.954 363.615-7.046 7.046"/><path d="m131.908 370.661h7.633"/></g></g></g><g><g fill="#006464" fill-opacity="0" opacity="0" stroke="#000"><path d="m110.031 306.724c.004.069.02.125.049.168.054.08.151.121.288.121.062 0 .118-.009.169-.027.098-.034.147-.095.147-.183 0-.067-.02-.114-.062-.142-.042-.027-.107-.051-.196-.072l-.165-.037c-.108-.024-.184-.051-.228-.08-.077-.051-.116-.127-.116-.228 0-.109.038-.198.113-.268.076-.07.183-.105.321-.105.127 0 .236.03.325.092.089.061.133.16.133.295h-.154c-.009-.065-.026-.115-.053-.15-.051-.063-.136-.095-.256-.095-.097 0-.167.02-.209.061s-.064.088-.064.142c0 .06.025.103.075.131.032.018.106.04.22.066l.171.039c.082.019.145.044.19.077.077.057.116.139.116.247 0 .135-.049.231-.147.289s-.212.086-.341.086c-.151 0-.269-.038-.355-.115-.085-.077-.127-.181-.125-.312z"/><path d="m111.133 305.901.229.988.275-.988h.178l.275.988.229-.988h.18l-.319 1.215h-.173l-.28-1.007-.282 1.007h-.173l-.317-1.215z"/><path d="m112.684 306.278v-.115c.108-.01.183-.028.225-.052.043-.025.074-.083.095-.174h.118v1.179h-.159v-.838z"/></g><g fill="none" stroke="#006464"><path d="m82.5901 323.407 1.761.587"/><path d="m84.3511 323.994h2.9358"/><path d="m87.2869 323.994 1.1738-.587"/><path d="m88.4607 323.407.5873-.587"/><path d="m89.048 322.82.5874-1.175"/><path d="m89.6354 321.645v-1.173"/><path d="m89.6354 320.472-.5874-1.175"/><path d="m89.048 319.297-.5873-.588"/><path d="m88.4607 318.709-1.1738-.586"/><path d="m87.2869 318.123-2.3484-.587"/><path d="m84.9385 317.536-1.1747-.588"/><path d="m83.7638 316.948-.5874-.587"/><path d="m83.1764 316.361-.5863-1.174"/><path d="m82.5901 315.187v-1.174"/><path d="m82.5901 314.013.5863-1.174"/><path d="m83.1764 312.839.5874-.587"/><path d="m83.7638 312.252 1.1747-.588"/><path d="m84.9385 311.664h2.9348"/><path d="m87.8733 311.664 1.7621.588"/><path d="m93.7449 311.664 2.9358 12.33"/><path d="m96.6807 323.994 2.3484-8.807"/><path d="m99.0291 315.187 2.3489 8.807"/><path d="m101.378 323.994 2.935-12.33"/><path d="m115.468 323.994h-7.045"/><path d="m111.945 323.994v-12.33"/><path d="m111.945 311.664-1.174 1.762"/><path d="m110.771 313.426-1.174 1.174"/><path d="m109.597 314.6-1.174.587"/></g></g></g><g><g fill="none" stroke="#840000"><path d="m438.091 349.192 18.495-18.495"/><path d="m438.091 361.521 18.495 18.494"/></g><path d="m438.091 336.862v36.989" fill="none" stroke="#840000"/><path d="m444.256 372.618 4.932-4.932 4.932 9.864z" fill="#840000" fill-rule="evenodd" stroke="#840000"/><g fill="none"><path d="m416.885 355.356c0-15.117 12.254-27.371 27.371-27.371s27.372 12.254 27.372 27.371-12.255 27.372-27.372 27.372-27.371-12.255-27.371-27.372z" stroke="#840000"/><path d="m456.586 330.697v-24.659" stroke="#840000"/><g><path d="m453.126 306.4h-.114c-.01-.107-.028-.182-.052-.225-.025-.042-.083-.074-.174-.095v-.117h1.179v.159h-.839z" opacity="0" stroke="#000"/><g stroke="#a90000"><path d="m471.89 314.844v7.045"/><path d="m471.89 318.367h-12.33"/><path d="m459.56 318.367 1.762 1.174"/><path d="m461.322 319.541 1.174 1.174"/><path d="m462.496 320.715.587 1.174"/></g></g><path d="m438.091 355.356h-55.483" stroke="#840000"/><g><path d="m422.208 352.735c.006-.102.027-.191.064-.266.036-.076.108-.144.214-.206l.159-.092c.071-.041.121-.076.149-.106.046-.045.068-.098.068-.157 0-.069-.02-.123-.062-.164-.041-.04-.096-.061-.165-.061-.102 0-.173.039-.212.116-.021.042-.032.099-.034.172h-.152c.002-.103.021-.187.057-.252.065-.115.179-.172.342-.172.135 0 .234.037.297.11s.094.155.094.245c0 .095-.034.176-.1.243-.039.039-.108.086-.208.142l-.113.063c-.054.03-.096.058-.127.085-.055.048-.09.101-.105.16h.647v.14z" opacity="0" stroke="#000"/><g stroke="#a90000"><path d="m406.828 359.506.586-.588"/><path d="m407.414 358.918 1.175-.587"/><path d="m408.589 358.331h2.936"/><path d="m411.525 358.331 1.173.587"/><path d="m412.698 358.918.588.588"/><path d="m413.286 359.506.587 1.173"/><path d="m413.873 360.679v1.175"/><path d="m413.873 361.854-.587 1.761"/><path d="m413.286 363.615-7.046 7.046"/><path d="m406.24 370.661h7.633"/></g></g><path d="m456.586 380.015v24.66" stroke="#840000"/><g><path d="m453.997 380.1c0 .14-.039.241-.116.304s-.17.095-.28.095v-.155c.076-.007.132-.021.167-.043.062-.039.093-.109.093-.21 0-.078-.021-.141-.063-.188-.042-.048-.096-.071-.162-.071-.081 0-.138.025-.171.075-.032.05-.049.119-.049.208 0 .009 0 .02.001.03 0 .01 0 .02.001.031h-.132c.002-.016.003-.029.004-.039 0-.011.001-.022.001-.034 0-.056-.009-.101-.027-.137-.031-.063-.086-.095-.165-.095-.059 0-.105.021-.137.063s-.048.091-.048.147c0 .099.033.168.1.206.036.02.088.032.155.035v.147c-.088 0-.163-.017-.225-.053-.11-.06-.165-.167-.165-.32 0-.12.027-.214.08-.28.054-.066.132-.099.234-.099.073 0 .132.019.177.059.028.024.05.055.066.094.017-.062.05-.111.099-.146s.108-.053.179-.053c.113 0 .205.038.276.112s.107.18.107.317z" opacity="0" stroke="#000"/><g stroke="#a90000"><path d="m459.56 396.454v-7.633"/><path d="m459.56 388.821 4.697 4.11"/><path d="m464.257 392.931v-1.762"/><path d="m464.257 391.169.588-1.173"/><path d="m464.845 389.996.587-.588"/><path d="m465.432 389.408 1.174-.587"/><path d="m466.606 388.821h2.935"/><path d="m469.541 388.821 1.175.587"/><path d="m470.716 389.408.587.588"/><path d="m471.303 389.996.587 1.173"/><path d="m471.89 391.169v3.523"/><path d="m471.89 394.692-.587 1.174"/><path d="m471.303 395.866-.587.588"/></g></g></g><g><g fill="#006464" fill-opacity="0" opacity="0" stroke="#000"><path d="m506.976 344.101-.083.1-.187-.143c-.046.025-.095.045-.147.06-.053.015-.11.022-.173.022-.188 0-.336-.062-.443-.185-.094-.12-.141-.271-.141-.452 0-.164.041-.304.122-.421.105-.15.26-.225.465-.225.214 0 .373.069.476.207.081.107.121.245.121.412 0 .078-.01.154-.029.226-.029.11-.079.2-.148.269zm-.57-.108c.034 0 .066-.002.096-.007s.056-.014.078-.028l-.133-.104.082-.102.159.123c.05-.057.084-.121.102-.192s.027-.139.027-.204c0-.143-.037-.258-.112-.345s-.177-.131-.306-.131c-.131 0-.235.042-.312.125-.077.084-.115.213-.115.386 0 .146.037.263.111.349.073.087.181.13.323.13z"/><path d="m507.215 343.266v-.114c.107-.01.182-.028.225-.052.042-.025.074-.083.095-.175h.117v1.18h-.158v-.839z"/></g><g fill="none" stroke="#006464"><path d="m493.479 362.157-1.175-.587"/><path d="m492.304 361.57-1.173-1.174"/><path d="m491.131 360.396-1.761-1.762"/><path d="m489.37 358.634-1.175-.587"/><path d="m488.195 358.047h-1.174"/><path d="m487.608 360.982-1.174-.586"/><path d="m486.434 360.396-1.175-1.175"/><path d="m485.259 359.221-.586-2.348"/><path d="m484.673 356.873v-4.11"/><path d="m484.673 352.763.586-2.348"/><path d="m485.259 350.415 1.175-1.175"/><path d="m486.434 349.24 1.174-.587"/><path d="m487.608 348.653h2.348"/><path d="m489.956 348.653 1.175.587"/><path d="m491.131 349.24 1.173 1.175"/><path d="m492.304 350.415.588 2.348"/><path d="m492.892 352.763v4.11"/><path d="m492.892 356.873-.588 2.348"/><path d="m492.304 359.221-1.173 1.175"/><path d="m491.131 360.396-1.175.586"/><path d="m489.956 360.982h-2.348"/><path d="m504.635 360.982h-7.045"/><path d="m501.112 360.982v-12.329"/><path d="m501.112 348.653-1.174 1.762"/><path d="m499.938 350.415-1.175 1.174"/><path d="m498.763 351.589-1.173.587"/></g></g></g><g><g fill="none" stroke="#840000"><path d="m320.961 367.686v-24.659"/><path d="m320.961 355.356h-24.659"/><path d="m296.302 367.686v-24.659l24.659 12.329z"/><g><path d="m338.222 362.754 14.796 14.796h-7.398 7.398v-7.398"/><path d="m325.893 362.754 14.795 14.796h-7.398 7.398v-7.398"/><path d="m320.961 355.356h24.659"/><path d="m296.302 355.356h-24.659"/></g></g><g><g fill="#006464" fill-opacity="0" opacity="0" stroke="#000"><path d="m318.175 305.901h.165v1.07h.615v.145h-.78z"/><path d="m319.133 305.901h.885v.149h-.725v.369h.671v.14h-.671v.412h.738v.145h-.898z"/><path d="m320.713 306.975c.056 0 .101-.005.137-.017.064-.021.116-.063.157-.124.033-.049.056-.112.071-.189.008-.045.012-.088.012-.127 0-.15-.03-.267-.09-.35-.06-.084-.156-.125-.289-.125h-.292v.932zm-.459-1.074h.492c.167 0 .297.06.389.178.082.107.123.244.123.411 0 .129-.025.246-.073.35-.085.184-.232.276-.441.276h-.49z"/><path d="m321.502 306.278v-.115c.108-.01.183-.028.225-.052.043-.025.075-.083.095-.174h.118v1.179h-.159v-.838z"/></g><g fill="none" stroke="#006464"><path d="m294.834 323.994h-5.872"/><path d="m288.962 323.994v-12.33"/><path d="m298.943 317.536h4.111"/><path d="m304.815 323.994h-5.872"/><path d="m298.943 323.994v-12.33"/><path d="m298.943 311.664h5.872"/><path d="m310.098 323.994v-12.33"/><path d="m310.098 311.664h2.936"/><path d="m313.034 311.664 1.761.588"/><path d="m314.795 312.252 1.175 1.174"/><path d="m315.97 313.426.587 1.174"/><path d="m316.557 314.6.586 2.348"/><path d="m317.143 316.948v1.761"/><path d="m317.143 318.709-.586 2.349"/><path d="m316.557 321.058-.587 1.175"/><path d="m315.97 322.233-1.175 1.174"/><path d="m314.795 323.407-1.761.587"/><path d="m313.034 323.994h-2.936"/><path d="m328.887 323.994h-7.046"/><path d="m325.363 323.994v-12.33"/><path d="m325.363 311.664-1.173 1.762"/><path d="m324.19 313.426-1.175 1.174"/><path d="m323.015 314.6-1.174.587"/></g></g></g><g><path d="m456.586 453.993v12.329h12.329l-12.329 12.33-12.33-12.33h12.33" fill="none" stroke="#840000"/><g><g fill="#006464" fill-opacity="0" opacity="0" stroke="#000"><path d="m468.412 490.813c.114 0 .212.022.296.066.12.064.194.175.221.333h-.163c-.02-.088-.061-.153-.123-.194-.062-.04-.141-.06-.236-.06-.112 0-.207.042-.284.126-.076.085-.115.21-.115.377 0 .145.032.262.095.353.064.091.167.136.31.136.11 0 .201-.032.273-.096.072-.063.108-.166.11-.308h-.38v-.137h.533v.65h-.106l-.04-.156c-.055.061-.105.103-.148.127-.072.041-.164.061-.275.061-.144 0-.267-.046-.371-.139-.113-.117-.17-.278-.17-.482 0-.203.056-.365.166-.485.104-.115.24-.172.407-.172z"/><path d="m469.204 490.844h.194l.613.984v-.984h.157v1.215h-.185l-.622-.983v.983h-.157z"/><path d="m470.893 491.918c.055 0 .101-.005.137-.017.064-.021.116-.063.157-.124.033-.049.056-.112.07-.188.009-.046.013-.089.013-.128 0-.15-.03-.267-.09-.35-.06-.084-.156-.125-.289-.125h-.292v.932zm-.459-1.074h.492c.167 0 .296.06.388.178.083.107.124.244.124.411 0 .129-.025.246-.073.35-.086.184-.232.276-.441.276h-.49z"/></g><g fill="none" stroke="#006464"><path d="m447.192 497.195-1.175-.588"/><path d="m446.017 496.607h-1.761"/><path d="m444.256 496.607-1.761.588"/><path d="m442.495 497.195-1.175 1.174"/><path d="m441.32 498.369-.587 1.174"/><path d="m440.733 499.543-.586 2.348"/><path d="m440.147 501.891v1.762"/><path d="m440.147 503.653.586 2.348"/><path d="m440.733 506.001.587 1.175"/><path d="m441.32 507.176 1.175 1.174"/><path d="m442.495 508.35 1.761.587"/><path d="m444.256 508.937h1.174"/><path d="m445.43 508.937 1.762-.587"/><path d="m447.192 508.35.586-.587"/><path d="m447.778 507.763v-4.11"/><path d="m447.778 503.653h-2.348"/><path d="m453.063 508.937v-12.33"/><path d="m453.063 496.607 7.045 12.33"/><path d="m460.108 508.937v-12.33"/><path d="m465.979 508.937v-12.33"/><path d="m465.979 496.607h2.936"/><path d="m468.915 496.607 1.761.588"/><path d="m470.676 497.195 1.175 1.174"/><path d="m471.851 498.369.587 1.174"/><path d="m472.438 499.543.587 2.348"/><path d="m473.025 501.891v1.762"/><path d="m473.025 503.653-.587 2.348"/><path d="m472.438 506.001-.587 1.175"/><path d="m471.851 507.176-1.175 1.174"/><path d="m470.676 508.35-1.761.587"/><path d="m468.915 508.937h-2.936"/></g></g></g><g><g fill="none" stroke="#840000"><path d="m690.847 380.015h-24.659"/><path d="m678.517 380.015v-24.659"/><path d="m690.847 355.356h-24.659l12.329 24.659z"/><g><path d="m685.915 397.277 14.795 14.795v-7.397 7.397h-7.397"/><path d="m685.915 384.947 14.795 14.796v-7.398 7.398h-7.397"/><path d="m678.517 380.015v24.66"/><path d="m678.517 355.356v-24.659"/></g></g><g><g fill="#006464" fill-opacity="0" opacity="0" stroke="#000"><path d="m737.38 355.22h.164v1.069h.615v.145h-.779z"/><path d="m738.337 355.22h.886v.148h-.725v.369h.67v.141h-.67v.411h.737v.145h-.898z"/><path d="m739.917 356.294c.056 0 .102-.006.137-.018.064-.021.117-.063.158-.124.032-.049.055-.112.07-.188.008-.046.012-.089.012-.128 0-.15-.03-.267-.09-.35-.059-.083-.156-.125-.288-.125h-.292v.933zm-.459-1.074h.492c.167 0 .297.059.389.177.082.107.123.244.123.411 0 .129-.024.246-.073.35-.085.184-.232.276-.44.276h-.491z"/><path d="m740.598 356.434c.005-.102.026-.191.063-.266.037-.076.108-.144.214-.206l.159-.092c.071-.041.121-.076.15-.106.045-.045.068-.098.068-.157 0-.069-.021-.123-.062-.164-.042-.04-.097-.061-.166-.061-.102 0-.172.039-.211.116-.021.041-.033.099-.035.172h-.151c.001-.103.02-.187.057-.252.064-.115.178-.172.341-.172.136 0 .235.037.297.11.063.073.094.155.094.245 0 .094-.033.176-.1.243-.038.039-.108.086-.207.142l-.114.063c-.054.03-.096.058-.127.085-.055.048-.09.101-.104.16h.646v.14z"/></g><g fill="none" stroke="#006464"><path d="m714.038 373.312h-5.872"/><path d="m708.166 373.312v-12.33"/><path d="m718.148 366.854h4.11"/><path d="m724.019 373.312h-5.871"/><path d="m718.148 373.312v-12.33"/><path d="m718.148 360.982h5.871"/><path d="m729.302 373.312v-12.33"/><path d="m729.302 360.982h2.936"/><path d="m732.238 360.982 1.761.588"/><path d="m733.999 361.57 1.175 1.174"/><path d="m735.174 362.744.587 1.174"/><path d="m735.761 363.918.587 2.349"/><path d="m736.348 366.267v1.761"/><path d="m736.348 368.028-.587 2.348"/><path d="m735.761 370.376-.587 1.175"/><path d="m735.174 371.551-1.175 1.174"/><path d="m733.999 372.725-1.761.587"/><path d="m732.238 373.312h-2.936"/><path d="m741.046 362.157.586-.587"/><path d="m741.632 361.57 1.175-.588"/><path d="m742.807 360.982h2.935"/><path d="m745.742 360.982 1.174.588"/><path d="m746.916 361.57.587.587"/><path d="m747.503 362.157.588 1.174"/><path d="m748.091 363.331v1.174"/><path d="m748.091 364.505-.588 1.762"/><path d="m747.503 366.267-7.045 7.045"/><path d="m740.458 373.312h7.633"/></g></g></g><g><path d="m678.517 453.993v12.329h12.33l-12.33 12.33-12.329-12.33h12.329" fill="none" stroke="#840000"/><g><g fill="#006464" fill-opacity="0" opacity="0" stroke="#000"><path d="m690.343 490.813c.114 0 .213.022.296.066.121.064.195.175.222.333h-.163c-.02-.088-.061-.153-.123-.194-.063-.04-.141-.06-.236-.06-.112 0-.207.042-.284.126-.077.085-.115.21-.115.377 0 .145.031.262.095.353.063.091.167.136.31.136.11 0 .2-.032.272-.096.072-.063.109-.166.111-.308h-.381v-.137h.534v.65h-.106l-.04-.156c-.056.061-.105.103-.148.127-.072.041-.164.061-.275.061-.144 0-.268-.046-.371-.139-.113-.117-.17-.278-.17-.482 0-.203.055-.365.165-.485.105-.115.241-.172.407-.172z"/><path d="m691.135 490.844h.195l.613.984v-.984h.156v1.215h-.184l-.623-.983v.983h-.157z"/><path d="m692.824 491.918c.056 0 .102-.005.138-.017.064-.021.116-.063.157-.124.032-.049.056-.112.07-.188.008-.046.012-.089.012-.128 0-.15-.029-.267-.089-.35-.06-.084-.156-.125-.289-.125h-.292v.932zm-.458-1.074h.492c.167 0 .296.06.388.178.082.107.123.244.123.411 0 .129-.024.246-.072.35-.086.184-.233.276-.441.276h-.49z"/></g><g fill="none" stroke="#006464"><path d="m669.124 497.195-1.175-.588"/><path d="m667.949 496.607h-1.761"/><path d="m666.188 496.607-1.761.588"/><path d="m664.427 497.195-1.175 1.174"/><path d="m663.252 498.369-.587 1.174"/><path d="m662.665 499.543-.587 2.348"/><path d="m662.078 501.891v1.762"/><path d="m662.078 503.653.587 2.348"/><path d="m662.665 506.001.587 1.175"/><path d="m663.252 507.176 1.175 1.174"/><path d="m664.427 508.35 1.761.587"/><path d="m666.188 508.937h1.173"/><path d="m667.361 508.937 1.763-.587"/><path d="m669.124 508.35.586-.587"/><path d="m669.71 507.763v-4.11"/><path d="m669.71 503.653h-2.349"/><path d="m674.994 508.937v-12.33"/><path d="m674.994 496.607 7.045 12.33"/><path d="m682.039 508.937v-12.33"/><path d="m687.911 508.937v-12.33"/><path d="m687.911 496.607h2.936"/><path d="m690.847 496.607 1.761.588"/><path d="m692.608 497.195 1.175 1.174"/><path d="m693.783 498.369.587 1.174"/><path d="m694.37 499.543.586 2.348"/><path d="m694.956 501.891v1.762"/><path d="m694.956 503.653-.586 2.348"/><path d="m694.37 506.001-.587 1.175"/><path d="m693.783 507.176-1.175 1.174"/><path d="m692.608 508.35-1.761.587"/><path d="m690.847 508.937h-2.936"/></g></g></g><g stroke="#009600"><g fill="none"><path d="m456.586 269.05v36.988"/><path d="m456.586 145.754v49.318"/><path d="m678.517 306.038h-221.931"/><path d="m148.347 355.356h24.659"/><path d="m246.984 355.356h24.659"/><path d="m37.3814 355.356h12.3296"/><path d="m37.3814 244.391v110.965"/><path d="m345.62 355.356h36.988"/><path d="m456.586 404.675v49.318"/><path d="m678.517 404.675v49.318"/><path d="m678.517 306.038v24.659"/></g><path d="m452.147 306.038c0-2.451 1.987-4.438 4.439-4.438 2.451 0 4.438 1.987 4.438 4.438 0 2.452-1.987 4.439-4.438 4.439-2.452 0-4.439-1.987-4.439-4.439z" fill="#009600"/></g></g></svg>